<svg width="64" height="64" viewBox="0 0 64 64" fill="none" xmlns="http://www.w3.org/2000/svg">
<rect width="64" height="64" rx="32" fill="#EFF4F5"/>
<rect x="6" y="6" width="52" height="52" rx="26" fill="#D9F6E4"/>
<path d="M20 29.622C20 29.1802 20.3582 28.822 20.8 28.822H25.6117C26.0535 28.822 26.4117 29.1802 26.4117 29.622V45.2C26.4117 45.6418 26.0535 46 25.6117 46H20.8C20.3582 46 20 45.6418 20 45.2V29.622Z" fill="#51A5F2"/>
<path d="M28.7939 24.8C28.7939 24.3582 29.1521 24 29.5939 24H34.4056C34.8475 24 35.2056 24.3582 35.2056 24.8V45.1997C35.2056 45.6415 34.8475 45.9997 34.4056 45.9997H29.5939C29.1521 45.9997 28.7939 45.6415 28.7939 45.1997V24.8Z" fill="#8746F1"/>
<path d="M37.5879 32.1535C37.5879 31.7117 37.9461 31.3535 38.3879 31.3535H43.1996C43.6414 31.3535 43.9996 31.7117 43.9996 32.1535V45.2C43.9996 45.6419 43.6414 46 43.1996 46H38.3879C37.9461 46 37.5879 45.6419 37.5879 45.2V32.1535Z" fill="#DF58C9"/>
<circle cx="23.2061" cy="23.5278" r="2" fill="#F8C434" stroke="white"/>
<circle cx="32" cy="19.6282" r="2" fill="#F8C434" stroke="white"/>
<path d="M37.9785 23.5281L35.583 21.6174" stroke="#6DC890" stroke-width="1.3" stroke-linecap="round"/>
<circle cx="40.7939" cy="25.8262" r="2" fill="#F8C434" stroke="white"/>
<path d="M26.2842 21.5275L28.4079 20.3794" stroke="#6DC890" stroke-width="1.3" stroke-linecap="round"/>
</svg>
