<svg width="20" height="20" viewBox="0 0 20 20" fill="none" xmlns="http://www.w3.org/2000/svg">
<path opacity="0.4" d="M18.4388 7.09999V3.31666C18.4388 2.14166 17.9055 1.66666 16.5805 1.66666H13.2138C11.8888 1.66666 11.3555 2.14166 11.3555 3.31666V7.09166C11.3555 8.27499 11.8888 8.74166 13.2138 8.74166H16.5805C17.9055 8.74999 18.4388 8.27499 18.4388 7.09999Z" fill="#8746F1"/>
<path d="M18.4388 16.475V13.1083C18.4388 11.7833 17.9055 11.25 16.5805 11.25H13.2138C11.8888 11.25 11.3555 11.7833 11.3555 13.1083V16.475C11.3555 17.8 11.8888 18.3333 13.2138 18.3333H16.5805C17.9055 18.3333 18.4388 17.8 18.4388 16.475Z" fill="#8746F1"/>
<path d="M8.85482 7.09999V3.31666C8.85482 2.14166 8.32149 1.66666 6.99649 1.66666H3.62982C2.30482 1.66666 1.77148 2.14166 1.77148 3.31666V7.09166C1.77148 8.27499 2.30482 8.74166 3.62982 8.74166H6.99649C8.32149 8.74999 8.85482 8.27499 8.85482 7.09999Z" fill="#8746F1"/>
<path opacity="0.4" d="M8.85482 16.475V13.1083C8.85482 11.7833 8.32149 11.25 6.99649 11.25H3.62982C2.30482 11.25 1.77148 11.7833 1.77148 13.1083V16.475C1.77148 17.8 2.30482 18.3333 3.62982 18.3333H6.99649C8.32149 18.3333 8.85482 17.8 8.85482 16.475Z" fill="#8746F1"/>
</svg>
