<svg width="20" height="20" viewBox="0 0 20 20" fill="none" xmlns="http://www.w3.org/2000/svg">
<path opacity="0.4" d="M16.1641 8.32617H14.1571C12.5113 8.32617 11.171 6.98589 11.171 5.34006V3.33312C11.171 2.95117 10.8585 2.63867 10.4766 2.63867H7.53212C5.39323 2.63867 3.66406 4.02756 3.66406 6.50673V12.6595C3.66406 15.1387 5.39323 16.5276 7.53212 16.5276H12.9905C15.1293 16.5276 16.8585 15.1387 16.8585 12.6595V9.02062C16.8585 8.63867 16.546 8.32617 16.1641 8.32617Z" fill="#F09642"/>
<path d="M12.8998 2.78473C12.6151 2.50001 12.1221 2.69445 12.1221 3.09029V5.5139C12.1221 6.52779 12.9832 7.36806 14.0318 7.36806C14.6915 7.37501 15.6082 7.37501 16.3929 7.37501C16.7887 7.37501 16.9971 6.90973 16.7193 6.63195C15.7193 5.62501 13.9276 3.81251 12.8998 2.78473Z" fill="#F09642"/>
<path d="M11.3027 10.7985H7.13607C6.85135 10.7985 6.61523 10.5624 6.61523 10.2777C6.61523 9.99295 6.85135 9.75684 7.13607 9.75684H11.3027C11.5875 9.75684 11.8236 9.99295 11.8236 10.2777C11.8236 10.5624 11.5875 10.7985 11.3027 10.7985Z" fill="#F09642"/>
<path d="M9.91385 13.5763H7.13607C6.85135 13.5763 6.61523 13.3402 6.61523 13.0555C6.61523 12.7708 6.85135 12.5347 7.13607 12.5347H9.91385C10.1986 12.5347 10.4347 12.7708 10.4347 13.0555C10.4347 13.3402 10.1986 13.5763 9.91385 13.5763Z" fill="#F09642"/>
</svg>
