<svg width="40" height="40" viewBox="0 0 40 40" fill="none" xmlns="http://www.w3.org/2000/svg">
<g filter="url(#filter0_d_1542_15134)">
<rect x="4" y="2" width="32" height="32" rx="16" fill="#E1EAF3" shape-rendering="crispEdges"/>
<path opacity="0.4" d="M24.7848 18.6309V22.3284C24.7848 23.2809 24.0423 24.3009 23.1498 24.6009L20.7573 25.3959C20.3373 25.5384 19.6548 25.5384 19.2423 25.3959L16.8498 24.6009C15.9498 24.3009 15.2148 23.2809 15.2148 22.3284L15.2223 18.6309L18.5373 20.7909C19.3473 21.3234 20.6823 21.3234 21.4923 20.7909L24.7848 18.6309Z" fill="#51A5F2"/>
<path d="M25.9846 13.8449L21.4921 10.8974C20.6821 10.3649 19.3471 10.3649 18.5371 10.8974L14.0221 13.8449C12.5746 14.7824 12.5746 16.9049 14.0221 17.8499L15.2221 18.6299L18.5371 20.7899C19.3471 21.3224 20.6821 21.3224 21.4921 20.7899L24.7846 18.6299L25.8121 17.9549V20.2499C25.8121 20.5574 26.0671 20.8124 26.3746 20.8124C26.6821 20.8124 26.9371 20.5574 26.9371 20.2499V16.5599C27.2371 15.5924 26.9296 14.4674 25.9846 13.8449Z" fill="#51A5F2"/>
</g>
<defs>
<filter id="filter0_d_1542_15134" x="0" y="0" width="40" height="40" filterUnits="userSpaceOnUse" color-interpolation-filters="sRGB">
<feFlood flood-opacity="0" result="BackgroundImageFix"/>
<feColorMatrix in="SourceAlpha" type="matrix" values="0 0 0 0 0 0 0 0 0 0 0 0 0 0 0 0 0 0 127 0" result="hardAlpha"/>
<feOffset dy="2"/>
<feGaussianBlur stdDeviation="2"/>
<feComposite in2="hardAlpha" operator="out"/>
<feColorMatrix type="matrix" values="0 0 0 0 0.8625 0 0 0 0 0.8625 0 0 0 0 0.8625 0 0 0 0.25 0"/>
<feBlend mode="normal" in2="BackgroundImageFix" result="effect1_dropShadow_1542_15134"/>
<feBlend mode="normal" in="SourceGraphic" in2="effect1_dropShadow_1542_15134" result="shape"/>
</filter>
</defs>
</svg>
