<svg width="20" height="20" viewBox="0 0 20 20" fill="none" xmlns="http://www.w3.org/2000/svg">
<path opacity="0.4" d="M16.8053 5.68333L12.0053 2.325C10.697 1.40833 8.68867 1.45833 7.43034 2.43333L3.25534 5.69167C2.42201 6.34167 1.76367 7.675 1.76367 8.725V14.475C1.76367 16.6 3.48867 18.3333 5.61367 18.3333H14.597C16.722 18.3333 18.447 16.6083 18.447 14.4833V8.83333C18.447 7.70833 17.722 6.325 16.8053 5.68333Z" fill="#1D894E"/>
<path d="M10.1055 15.625C9.7638 15.625 9.48047 15.3417 9.48047 15V12.5C9.48047 12.1583 9.7638 11.875 10.1055 11.875C10.4471 11.875 10.7305 12.1583 10.7305 12.5V15C10.7305 15.3417 10.4471 15.625 10.1055 15.625Z" fill="#1D894E"/>
</svg>
